<?xml version='1.0' encoding='UTF-8'?>
<svg width="45mm" height="45mm" version="1.1" viewBox="0 0 45 45" xmlns="http://www.w3.org/2000/svg"><path d="M2,2H3V3H2zM3,2H4V3H3zM4,2H5V3H4zM5,2H6V3H5zM6,2H7V3H6zM7,2H8V3H7zM8,2H9V3H8zM10,2H11V3H10zM16,2H17V3H16zM17,2H18V3H17zM21,2H22V3H21zM23,2H24V3H23zM24,2H25V3H24zM25,2H26V3H25zM28,2H29V3H28zM33,2H34V3H33zM36,2H37V3H36zM37,2H38V3H37zM38,2H39V3H38zM39,2H40V3H39zM40,2H41V3H40zM41,2H42V3H41zM42,2H43V3H42zM2,3H3V4H2zM8,3H9V4H8zM10,3H11V4H10zM11,3H12V4H11zM16,3H17V4H16zM18,3H19V4H18zM19,3H20V4H19zM21,3H22V4H21zM22,3H23V4H22zM30,3H31V4H30zM31,3H32V4H31zM32,3H33V4H32zM33,3H34V4H33zM36,3H37V4H36zM42,3H43V4H42zM2,4H3V5H2zM4,4H5V5H4zM5,4H6V5H5zM6,4H7V5H6zM8,4H9V5H8zM10,4H11V5H10zM11,4H12V5H11zM13,4H14V5H13zM15,4H16V5H15zM16,4H17V5H16zM17,4H18V5H17zM18,4H19V5H18zM19,4H20V5H19zM20,4H21V5H20zM21,4H22V5H21zM22,4H23V5H22zM23,4H24V5H23zM33,4H34V5H33zM36,4H37V5H36zM38,4H39V5H38zM39,4H40V5H39zM40,4H41V5H40zM42,4H43V5H42zM2,5H3V6H2zM4,5H5V6H4zM5,5H6V6H5zM6,5H7V6H6zM8,5H9V6H8zM11,5H12V6H11zM12,5H13V6H12zM13,5H14V6H13zM14,5H15V6H14zM21,5H22V6H21zM24,5H25V6H24zM25,5H26V6H25zM26,5H27V6H26zM30,5H31V6H30zM31,5H32V6H31zM34,5H35V6H34zM36,5H37V6H36zM38,5H39V6H38zM39,5H40V6H39zM40,5H41V6H40zM42,5H43V6H42zM2,6H3V7H2zM4,6H5V7H4zM5,6H6V7H5zM6,6H7V7H6zM8,6H9V7H8zM10,6H11V7H10zM16,6H17V7H16zM17,6H18V7H17zM18,6H19V7H18zM19,6H20V7H19zM20,6H21V7H20zM21,6H22V7H21zM22,6H23V7H22zM23,6H24V7H23zM24,6H25V7H24zM25,6H26V7H25zM27,6H28V7H27zM28,6H29V7H28zM30,6H31V7H30zM31,6H32V7H31zM32,6H33V7H32zM33,6H34V7H33zM36,6H37V7H36zM38,6H39V7H38zM39,6H40V7H39zM40,6H41V7H40zM42,6H43V7H42zM2,7H3V8H2zM8,7H9V8H8zM11,7H12V8H11zM14,7H15V8H14zM16,7H17V8H16zM19,7H20V8H19zM20,7H21V8H20zM22,7H23V8H22zM23,7H24V8H23zM24,7H25V8H24zM25,7H26V8H25zM26,7H27V8H26zM28,7H29V8H28zM30,7H31V8H30zM31,7H32V8H31zM32,7H33V8H32zM36,7H37V8H36zM42,7H43V8H42zM2,8H3V9H2zM3,8H4V9H3zM4,8H5V9H4zM5,8H6V9H5zM6,8H7V9H6zM7,8H8V9H7zM8,8H9V9H8zM10,8H11V9H10zM12,8H13V9H12zM14,8H15V9H14zM16,8H17V9H16zM18,8H19V9H18zM20,8H21V9H20zM22,8H23V9H22zM24,8H25V9H24zM26,8H27V9H26zM28,8H29V9H28zM30,8H31V9H30zM32,8H33V9H32zM34,8H35V9H34zM36,8H37V9H36zM37,8H38V9H37zM38,8H39V9H38zM39,8H40V9H39zM40,8H41V9H40zM41,8H42V9H41zM42,8H43V9H42zM12,9H13V10H12zM17,9H18V10H17zM21,9H22V10H21zM22,9H23V10H22zM24,9H25V10H24zM25,9H26V10H25zM26,9H27V10H26zM27,9H28V10H27zM29,9H30V10H29zM33,9H34V10H33zM34,9H35V10H34zM2,10H3V11H2zM5,10H6V11H5zM6,10H7V11H6zM7,10H8V11H7zM8,10H9V11H8zM9,10H10V11H9zM10,10H11V11H10zM12,10H13V11H12zM13,10H14V11H13zM14,10H15V11H14zM19,10H20V11H19zM20,10H21V11H20zM21,10H22V11H21zM22,10H23V11H22zM24,10H25V11H24zM26,10H27V11H26zM28,10H29V11H28zM29,10H30V11H29zM30,10H31V11H30zM31,10H32V11H31zM34,10H35V11H34zM35,10H36V11H35zM38,10H39V11H38zM40,10H41V11H40zM41,10H42V11H41zM42,10H43V11H42zM6,11H7V12H6zM7,11H8V12H7zM9,11H10V12H9zM10,11H11V12H10zM11,11H12V12H11zM12,11H13V12H12zM14,11H15V12H14zM15,11H16V12H15zM21,11H22V12H21zM22,11H23V12H22zM24,11H25V12H24zM25,11H26V12H25zM29,11H30V12H29zM32,11H33V12H32zM33,11H34V12H33zM34,11H35V12H34zM35,11H36V12H35zM37,11H38V12H37zM38,11H39V12H38zM41,11H42V12H41zM2,12H3V13H2zM4,12H5V13H4zM6,12H7V13H6zM7,12H8V13H7zM8,12H9V13H8zM10,12H11V13H10zM11,12H12V13H11zM12,12H13V13H12zM13,12H14V13H13zM15,12H16V13H15zM17,12H18V13H17zM18,12H19V13H18zM19,12H20V13H19zM25,12H26V13H25zM28,12H29V13H28zM29,12H30V13H29zM31,12H32V13H31zM32,12H33V13H32zM36,12H37V13H36zM40,12H41V13H40zM3,13H4V14H3zM4,13H5V14H4zM5,13H6V14H5zM11,13H12V14H11zM14,13H15V14H14zM15,13H16V14H15zM16,13H17V14H16zM18,13H19V14H18zM19,13H20V14H19zM20,13H21V14H20zM24,13H25V14H24zM28,13H29V14H28zM29,13H30V14H29zM31,13H32V14H31zM33,13H34V14H33zM34,13H35V14H34zM35,13H36V14H35zM37,13H38V14H37zM38,13H39V14H38zM39,13H40V14H39zM41,13H42V14H41zM42,13H43V14H42zM2,14H3V15H2zM7,14H8V15H7zM8,14H9V15H8zM9,14H10V15H9zM10,14H11V15H10zM12,14H13V15H12zM13,14H14V15H13zM14,14H15V15H14zM15,14H16V15H15zM16,14H17V15H16zM18,14H19V15H18zM21,14H22V15H21zM23,14H24V15H23zM26,14H27V15H26zM28,14H29V15H28zM30,14H31V15H30zM32,14H33V15H32zM34,14H35V15H34zM36,14H37V15H36zM37,14H38V15H37zM3,15H4V16H3zM4,15H5V16H4zM5,15H6V16H5zM6,15H7V16H6zM12,15H13V16H12zM17,15H18V16H17zM20,15H21V16H20zM21,15H22V16H21zM22,15H23V16H22zM23,15H24V16H23zM27,15H28V16H27zM32,15H33V16H32zM36,15H37V16H36zM37,15H38V16H37zM38,15H39V16H38zM40,15H41V16H40zM42,15H43V16H42zM3,16H4V17H3zM4,16H5V17H4zM5,16H6V17H5zM6,16H7V17H6zM7,16H8V17H7zM8,16H9V17H8zM9,16H10V17H9zM10,16H11V17H10zM11,16H12V17H11zM15,16H16V17H15zM17,16H18V17H17zM19,16H20V17H19zM20,16H21V17H20zM21,16H22V17H21zM22,16H23V17H22zM23,16H24V17H23zM24,16H25V17H24zM25,16H26V17H25zM26,16H27V17H26zM28,16H29V17H28zM29,16H30V17H29zM31,16H32V17H31zM33,16H34V17H33zM34,16H35V17H34zM35,16H36V17H35zM36,16H37V17H36zM40,16H41V17H40zM42,16H43V17H42zM2,17H3V18H2zM4,17H5V18H4zM7,17H8V18H7zM9,17H10V18H9zM11,17H12V18H11zM12,17H13V18H12zM13,17H14V18H13zM16,17H17V18H16zM18,17H19V18H18zM22,17H23V18H22zM25,17H26V18H25zM29,17H30V18H29zM30,17H31V18H30zM35,17H36V18H35zM37,17H38V18H37zM38,17H39V18H38zM40,17H41V18H40zM3,18H4V19H3zM4,18H5V19H4zM7,18H8V19H7zM8,18H9V19H8zM10,18H11V19H10zM11,18H12V19H11zM12,18H13V19H12zM14,18H15V19H14zM17,18H18V19H17zM18,18H19V19H18zM19,18H20V19H19zM22,18H23V19H22zM24,18H25V19H24zM26,18H27V19H26zM27,18H28V19H27zM28,18H29V19H28zM30,18H31V19H30zM31,18H32V19H31zM34,18H35V19H34zM35,18H36V19H35zM39,18H40V19H39zM41,18H42V19H41zM3,19H4V20H3zM4,19H5V20H4zM5,19H6V20H5zM12,19H13V20H12zM13,19H14V20H13zM15,19H16V20H15zM16,19H17V20H16zM17,19H18V20H17zM19,19H20V20H19zM21,19H22V20H21zM22,19H23V20H22zM23,19H24V20H23zM26,19H27V20H26zM28,19H29V20H28zM29,19H30V20H29zM30,19H31V20H30zM31,19H32V20H31zM32,19H33V20H32zM34,19H35V20H34zM35,19H36V20H35zM38,19H39V20H38zM40,19H41V20H40zM41,19H42V20H41zM6,20H7V21H6zM8,20H9V21H8zM11,20H12V21H11zM12,20H13V21H12zM13,20H14V21H13zM14,20H15V21H14zM16,20H17V21H16zM17,20H18V21H17zM18,20H19V21H18zM19,20H20V21H19zM20,20H21V21H20zM21,20H22V21H21zM25,20H26V21H25zM27,20H28V21H27zM28,20H29V21H28zM29,20H30V21H29zM32,20H33V21H32zM33,20H34V21H33zM34,20H35V21H34zM35,20H36V21H35zM36,20H37V21H36zM37,20H38V21H37zM38,20H39V21H38zM40,20H41V21H40zM41,20H42V21H41zM42,20H43V21H42zM4,21H5V22H4zM9,21H10V22H9zM10,21H11V22H10zM13,21H14V22H13zM15,21H16V22H15zM17,21H18V22H17zM18,21H19V22H18zM23,21H24V22H23zM26,21H27V22H26zM27,21H28V22H27zM29,21H30V22H29zM30,21H31V22H30zM34,21H35V22H34zM35,21H36V22H35zM36,21H37V22H36zM38,21H39V22H38zM40,21H41V22H40zM4,22H5V23H4zM5,22H6V23H5zM8,22H9V23H8zM11,22H12V23H11zM13,22H14V23H13zM14,22H15V23H14zM15,22H16V23H15zM20,22H21V23H20zM22,22H23V23H22zM23,22H24V23H23zM25,22H26V23H25zM27,22H28V23H27zM30,22H31V23H30zM31,22H32V23H31zM33,22H34V23H33zM34,22H35V23H34zM36,22H37V23H36zM37,22H38V23H37zM39,22H40V23H39zM40,22H41V23H40zM41,22H42V23H41zM42,22H43V23H42zM2,23H3V24H2zM5,23H6V24H5zM6,23H7V24H6zM10,23H11V24H10zM13,23H14V24H13zM17,23H18V24H17zM23,23H24V24H23zM24,23H25V24H24zM33,23H34V24H33zM34,23H35V24H34zM38,23H39V24H38zM3,24H4V25H3zM4,24H5V25H4zM6,24H7V25H6zM8,24H9V25H8zM11,24H12V25H11zM13,24H14V25H13zM15,24H16V25H15zM16,24H17V25H16zM18,24H19V25H18zM19,24H20V25H19zM24,24H25V25H24zM25,24H26V25H25zM27,24H28V25H27zM28,24H29V25H28zM29,24H30V25H29zM30,24H31V25H30zM31,24H32V25H31zM34,24H35V25H34zM35,24H36V25H35zM36,24H37V25H36zM38,24H39V25H38zM3,25H4V26H3zM4,25H5V26H4zM7,25H8V26H7zM9,25H10V26H9zM10,25H11V26H10zM13,25H14V26H13zM15,25H16V26H15zM16,25H17V26H16zM17,25H18V26H17zM19,25H20V26H19zM20,25H21V26H20zM21,25H22V26H21zM22,25H23V26H22zM25,25H26V26H25zM26,25H27V26H26zM28,25H29V26H28zM30,25H31V26H30zM31,25H32V26H31zM32,25H33V26H32zM33,25H34V26H33zM36,25H37V26H36zM38,25H39V26H38zM39,25H40V26H39zM41,25H42V26H41zM42,25H43V26H42zM5,26H6V27H5zM7,26H8V27H7zM8,26H9V27H8zM9,26H10V27H9zM10,26H11V27H10zM12,26H13V27H12zM13,26H14V27H13zM15,26H16V27H15zM17,26H18V27H17zM20,26H21V27H20zM21,26H22V27H21zM24,26H25V27H24zM25,26H26V27H25zM26,26H27V27H26zM28,26H29V27H28zM29,26H30V27H29zM30,26H31V27H30zM33,26H34V27H33zM34,26H35V27H34zM36,26H37V27H36zM37,26H38V27H37zM38,26H39V27H38zM40,26H41V27H40zM2,27H3V28H2zM4,27H5V28H4zM5,27H6V28H5zM7,27H8V28H7zM12,27H13V28H12zM14,27H15V28H14zM15,27H16V28H15zM16,27H17V28H16zM18,27H19V28H18zM22,27H23V28H22zM23,27H24V28H23zM24,27H25V28H24zM25,27H26V28H25zM26,27H27V28H26zM27,27H28V28H27zM28,27H29V28H28zM29,27H30V28H29zM31,27H32V28H31zM34,27H35V28H34zM37,27H38V28H37zM38,27H39V28H38zM40,27H41V28H40zM42,27H43V28H42zM3,28H4V29H3zM8,28H9V29H8zM10,28H11V29H10zM12,28H13V29H12zM13,28H14V29H13zM15,28H16V29H15zM19,28H20V29H19zM21,28H22V29H21zM23,28H24V29H23zM24,28H25V29H24zM29,28H30V29H29zM30,28H31V29H30zM31,28H32V29H31zM33,28H34V29H33zM34,28H35V29H34zM36,28H37V29H36zM37,28H38V29H37zM39,28H40V29H39zM41,28H42V29H41zM42,28H43V29H42zM2,29H3V30H2zM3,29H4V30H3zM5,29H6V30H5zM6,29H7V30H6zM9,29H10V30H9zM10,29H11V30H10zM11,29H12V30H11zM15,29H16V30H15zM18,29H19V30H18zM20,29H21V30H20zM22,29H23V30H22zM24,29H25V30H24zM29,29H30V30H29zM33,29H34V30H33zM35,29H36V30H35zM36,29H37V30H36zM38,29H39V30H38zM39,29H40V30H39zM40,29H41V30H40zM6,30H7V31H6zM8,30H9V31H8zM9,30H10V31H9zM13,30H14V31H13zM14,30H15V31H14zM15,30H16V31H15zM18,30H19V31H18zM19,30H20V31H19zM22,30H23V31H22zM24,30H25V31H24zM25,30H26V31H25zM27,30H28V31H27zM29,30H30V31H29zM31,30H32V31H31zM33,30H34V31H33zM34,30H35V31H34zM35,30H36V31H35zM37,30H38V31H37zM39,30H40V31H39zM2,31H3V32H2zM10,31H11V32H10zM13,31H14V32H13zM15,31H16V32H15zM16,31H17V32H16zM17,31H18V32H17zM19,31H20V32H19zM22,31H23V32H22zM24,31H25V32H24zM25,31H26V32H25zM26,31H27V32H26zM28,31H29V32H28zM32,31H33V32H32zM34,31H35V32H34zM35,31H36V32H35zM38,31H39V32H38zM39,31H40V32H39zM42,31H43V32H42zM2,32H3V33H2zM3,32H4V33H3zM4,32H5V33H4zM7,32H8V33H7zM8,32H9V33H8zM9,32H10V33H9zM13,32H14V33H13zM14,32H15V33H14zM15,32H16V33H15zM18,32H19V33H18zM22,32H23V33H22zM23,32H24V33H23zM25,32H26V33H25zM27,32H28V33H27zM28,32H29V33H28zM29,32H30V33H29zM30,32H31V33H30zM31,32H32V33H31zM33,32H34V33H33zM35,32H36V33H35zM38,32H39V33H38zM39,32H40V33H39zM40,32H41V33H40zM42,32H43V33H42zM2,33H3V34H2zM3,33H4V34H3zM4,33H5V34H4zM5,33H6V34H5zM7,33H8V34H7zM9,33H10V34H9zM11,33H12V34H11zM14,33H15V34H14zM15,33H16V34H15zM16,33H17V34H16zM17,33H18V34H17zM24,33H25V34H24zM26,33H27V34H26zM27,33H28V34H27zM28,33H29V34H28zM33,33H34V34H33zM36,33H37V34H36zM37,33H38V34H37zM38,33H39V34H38zM40,33H41V34H40zM42,33H43V34H42zM2,34H3V35H2zM3,34H4V35H3zM7,34H8V35H7zM8,34H9V35H8zM9,34H10V35H9zM11,34H12V35H11zM13,34H14V35H13zM14,34H15V35H14zM17,34H18V35H17zM19,34H20V35H19zM23,34H24V35H23zM26,34H27V35H26zM28,34H29V35H28zM30,34H31V35H30zM31,34H32V35H31zM34,34H35V35H34zM35,34H36V35H35zM36,34H37V35H36zM37,34H38V35H37zM38,34H39V35H38zM39,34H40V35H39zM40,34H41V35H40zM42,34H43V35H42zM10,35H11V36H10zM12,35H13V36H12zM13,35H14V36H13zM14,35H15V36H14zM17,35H18V36H17zM18,35H19V36H18zM19,35H20V36H19zM24,35H25V36H24zM25,35H26V36H25zM27,35H28V36H27zM28,35H29V36H28zM31,35H32V36H31zM32,35H33V36H32zM34,35H35V36H34zM38,35H39V36H38zM40,35H41V36H40zM41,35H42V36H41zM2,36H3V37H2zM3,36H4V37H3zM4,36H5V37H4zM5,36H6V37H5zM6,36H7V37H6zM7,36H8V37H7zM8,36H9V37H8zM10,36H11V37H10zM11,36H12V37H11zM12,36H13V37H12zM13,36H14V37H13zM16,36H17V37H16zM18,36H19V37H18zM23,36H24V37H23zM25,36H26V37H25zM27,36H28V37H27zM29,36H30V37H29zM30,36H31V37H30zM31,36H32V37H31zM32,36H33V37H32zM34,36H35V37H34zM36,36H37V37H36zM38,36H39V37H38zM39,36H40V37H39zM41,36H42V37H41zM2,37H3V38H2zM8,37H9V38H8zM10,37H11V38H10zM12,37H13V38H12zM13,37H14V38H13zM14,37H15V38H14zM16,37H17V38H16zM17,37H18V38H17zM18,37H19V38H18zM20,37H21V38H20zM21,37H22V38H21zM22,37H23V38H22zM25,37H26V38H25zM27,37H28V38H27zM31,37H32V38H31zM32,37H33V38H32zM33,37H34V38H33zM34,37H35V38H34zM38,37H39V38H38zM39,37H40V38H39zM41,37H42V38H41zM42,37H43V38H42zM2,38H3V39H2zM4,38H5V39H4zM5,38H6V39H5zM6,38H7V39H6zM8,38H9V39H8zM10,38H11V39H10zM11,38H12V39H11zM13,38H14V39H13zM14,38H15V39H14zM15,38H16V39H15zM16,38H17V39H16zM19,38H20V39H19zM23,38H24V39H23zM24,38H25V39H24zM27,38H28V39H27zM33,38H34V39H33zM34,38H35V39H34zM35,38H36V39H35zM36,38H37V39H36zM37,38H38V39H37zM38,38H39V39H38zM39,38H40V39H39zM41,38H42V39H41zM2,39H3V40H2zM4,39H5V40H4zM5,39H6V40H5zM6,39H7V40H6zM8,39H9V40H8zM10,39H11V40H10zM12,39H13V40H12zM14,39H15V40H14zM16,39H17V40H16zM17,39H18V40H17zM19,39H20V40H19zM20,39H21V40H20zM21,39H22V40H21zM24,39H25V40H24zM25,39H26V40H25zM28,39H29V40H28zM30,39H31V40H30zM32,39H33V40H32zM33,39H34V40H33zM34,39H35V40H34zM37,39H38V40H37zM40,39H41V40H40zM41,39H42V40H41zM2,40H3V41H2zM4,40H5V41H4zM5,40H6V41H5zM6,40H7V41H6zM8,40H9V41H8zM11,40H12V41H11zM12,40H13V41H12zM14,40H15V41H14zM15,40H16V41H15zM16,40H17V41H16zM17,40H18V41H17zM19,40H20V41H19zM21,40H22V41H21zM23,40H24V41H23zM26,40H27V41H26zM28,40H29V41H28zM29,40H30V41H29zM31,40H32V41H31zM32,40H33V41H32zM33,40H34V41H33zM34,40H35V41H34zM35,40H36V41H35zM37,40H38V41H37zM38,40H39V41H38zM39,40H40V41H39zM40,40H41V41H40zM42,40H43V41H42zM2,41H3V42H2zM8,41H9V42H8zM11,41H12V42H11zM12,41H13V42H12zM14,41H15V42H14zM17,41H18V42H17zM18,41H19V42H18zM20,41H21V42H20zM26,41H27V42H26zM30,41H31V42H30zM32,41H33V42H32zM33,41H34V42H33zM35,41H36V42H35zM36,41H37V42H36zM38,41H39V42H38zM39,41H40V42H39zM40,41H41V42H40zM42,41H43V42H42zM2,42H3V43H2zM3,42H4V43H3zM4,42H5V43H4zM5,42H6V43H5zM6,42H7V43H6zM7,42H8V43H7zM8,42H9V43H8zM10,42H11V43H10zM16,42H17V43H16zM18,42H19V43H18zM21,42H22V43H21zM25,42H26V43H25zM27,42H28V43H27zM30,42H31V43H30zM34,42H35V43H34zM38,42H39V43H38zM40,42H41V43H40z" id="qr-path" fill="#000000" fill-opacity="1" fill-rule="nonzero" stroke="none" /></svg>